{
	"asset":{
		"generator":"Khronos glTF Blender I/O v4.0.44",
		"version":"2.0"
	},
	"scene":0,
	"scenes":[
		{
			"name":"Scene",
			"nodes":[
				0,
				1,
				2,
				3,
				4,
				5,
				6,
				7,
				8,
				9,
				10,
				11,
				12,
				13,
				14,
				15
			]
		}
	],
	"nodes":[
		{
			"mesh":0,
			"name":"Cylinder",
			"rotation":[
				0.7071068286895752,
				0,
				0,
				0.7071068286895752
			],
			"scale":[
				0.18081240355968475,
				0.8740019202232361,
				0.21648800373077393
			],
			"translation":[
				2.657412551343441e-05,
				0,
				-0.266312837600708
			]
		},
		{
			"mesh":1,
			"name":"Cylinder.001",
			"rotation":[
				0.7071068286895752,
				0,
				0,
				0.7071068286895752
			],
			"scale":[
				0.1296801120042801,
				0.1866464912891388,
				0.1296801120042801
			],
			"translation":[
				-0.699640691280365,
				-0.15951593220233917,
				-0.47842711210250854
			]
		},
		{
			"mesh":2,
			"name":"Cylinder.002",
			"rotation":[
				0.7071068286895752,
				0,
				0,
				0.7071068286895752
			],
			"scale":[
				0.1296801120042801,
				0.1866464912891388,
				0.1296801120042801
			],
			"translation":[
				0.713049590587616,
				-0.15640772879123688,
				-0.475791335105896
			]
		},
		{
			"mesh":3,
			"name":"SurfPatch",
			"rotation":[
				0,
				0,
				-0.4084237217903137,
				0.9127925634384155
			],
			"scale":[
				0.2595197558403015,
				0.6550126671791077,
				0.6550126671791077
			],
			"translation":[
				-0.350352019071579,
				-0.2766802906990051,
				-0.7882480621337891
			]
		},
		{
			"mesh":4,
			"name":"Plane",
			"rotation":[
				0.5,
				0.5,
				-0.49999991059303284,
				0.5000000596046448
			],
			"scale":[
				0.17843623459339142,
				0.17843623459339142,
				0.17843623459339142
			],
			"translation":[
				0.007328778505325317,
				0.37032121419906616,
				1.378328561782837
			]
		},
		{
			"mesh":5,
			"name":"Plane.001",
			"rotation":[
				0.5,
				0.5,
				-0.49999991059303284,
				0.5000000596046448
			],
			"scale":[
				0.17843623459339142,
				0.17843623459339142,
				0.17843623459339142
			],
			"translation":[
				-0.02729763090610504,
				0.37032121419906616,
				1.3758327960968018
			]
		},
		{
			"mesh":6,
			"name":"SurfPatch.001",
			"rotation":[
				0.40842360258102417,
				-0.9127925038337708,
				0,
				1.349762612790073e-07
			],
			"scale":[
				0.2595197558403015,
				0.6550126671791077,
				0.6550126671791077
			],
			"translation":[
				0.34756237268447876,
				-0.2766802906990051,
				-0.7843658328056335
			]
		},
		{
			"mesh":7,
			"name":"SurfPatch.002",
			"rotation":[
				-0.2543692886829376,
				0,
				0,
				0.9671071767807007
			],
			"scale":[
				0.1644728183746338,
				0.07655014097690582,
				0.07655014097690582
			],
			"translation":[
				-0.0009682842064648867,
				0.05264369398355484,
				-1.5637545585632324
			]
		},
		{
			"mesh":8,
			"name":"Plane.002",
			"rotation":[
				0.7071068286895752,
				-0.7071068286895752,
				0,
				1.1520234011186403e-07
			],
			"scale":[
				0.01647857204079628,
				0.012621329165995121,
				0.012621329165995121
			],
			"translation":[
				-0.17940296232700348,
				0.04973611608147621,
				0.09975167363882065
			]
		},
		{
			"mesh":9,
			"name":"Plane.003",
			"rotation":[
				0.7071068286895752,
				-0.7071068286895752,
				0,
				1.1520234011186403e-07
			],
			"scale":[
				0.01647857204079628,
				0.012621329165995121,
				0.012621329165995121
			],
			"translation":[
				-0.17873938381671906,
				0.04881655424833298,
				-0.33727532625198364
			]
		},
		{
			"mesh":10,
			"name":"Plane.004",
			"rotation":[
				0.7071068286895752,
				-0.7071068286895752,
				0,
				1.1520234011186403e-07
			],
			"scale":[
				0.01647857204079628,
				0.012621329165995121,
				0.012621329165995121
			],
			"translation":[
				-0.17873945832252502,
				0.04659494012594223,
				-1.2081469297409058
			]
		},
		{
			"mesh":11,
			"name":"Plane.005",
			"rotation":[
				0.7071068286895752,
				-0.7071068286895752,
				0,
				1.1520234011186403e-07
			],
			"scale":[
				0.01647857204079628,
				0.012621329165995121,
				0.012621329165995121
			],
			"translation":[
				-0.17940303683280945,
				0.047514501959085464,
				-0.7711198329925537
			]
		},
		{
			"mesh":12,
			"name":"Plane.006",
			"rotation":[
				0,
				0,
				-0.7071068286895752,
				0.7071068286895752
			],
			"scale":[
				0.01647857204079628,
				0.012621329165995121,
				0.012621329165995121
			],
			"translation":[
				0.18014727532863617,
				0.04837130382657051,
				-0.024708032608032227
			]
		},
		{
			"mesh":13,
			"name":"Plane.007",
			"rotation":[
				0,
				0,
				-0.7071068286895752,
				0.7071068286895752
			],
			"scale":[
				0.01647857204079628,
				0.012621329165995121,
				0.012621329165995121
			],
			"translation":[
				0.17948365211486816,
				0.04745174199342728,
				0.41231900453567505
			]
		},
		{
			"mesh":14,
			"name":"Plane.008",
			"rotation":[
				0,
				0,
				-0.7071068286895752,
				0.7071068286895752
			],
			"scale":[
				0.01647857204079628,
				0.012621329165995121,
				0.012621329165995121
			],
			"translation":[
				0.17948365211486816,
				0.049673356115818024,
				-0.4585525393486023
			]
		},
		{
			"mesh":15,
			"name":"Plane.009",
			"rotation":[
				0,
				0,
				-0.7071068286895752,
				0.7071068286895752
			],
			"scale":[
				0.01647857204079628,
				0.012621329165995121,
				0.012621329165995121
			],
			"translation":[
				0.18014727532863617,
				0.05059291794896126,
				-0.8955795764923096
			]
		}
	],
	"materials":[
		{
			"doubleSided":true,
			"name":"Material.001",
			"pbrMetallicRoughness":{
				"metallicFactor":0,
				"roughnessFactor":0.5
			}
		},
		{
			"doubleSided":true,
			"name":"Material.002",
			"pbrMetallicRoughness":{
				"baseColorFactor":[
					0.7999992966651917,
					0,
					0.0019500451162457466,
					1
				],
				"metallicFactor":0,
				"roughnessFactor":0.5
			}
		},
		{
			"alphaMode":"BLEND",
			"doubleSided":true,
			"name":"Logo",
			"pbrMetallicRoughness":{
				"baseColorTexture":{
					"index":0
				},
				"metallicFactor":0,
				"roughnessFactor":0.5
			}
		},
		{
			"alphaMode":"BLEND",
			"doubleSided":true,
			"name":"Tail",
			"pbrMetallicRoughness":{
				"baseColorTexture":{
					"index":1
				},
				"metallicFactor":0,
				"roughnessFactor":0.5
			}
		},
		{
			"doubleSided":true,
			"name":"Material.006",
			"pbrMetallicRoughness":{
				"baseColorFactor":[
					0.0017582105938345194,
					0.0017582105938345194,
					0.0017582105938345194,
					1
				],
				"metallicFactor":0,
				"roughnessFactor":0.5
			}
		},
		{
			"doubleSided":true,
			"name":"Material.004",
			"pbrMetallicRoughness":{
				"baseColorFactor":[
					0.0017582105938345194,
					0.0017582105938345194,
					0.0017582105938345194,
					1
				],
				"metallicFactor":0,
				"roughnessFactor":0.5
			}
		},
		{
			"doubleSided":true,
			"name":"Material.005",
			"pbrMetallicRoughness":{
				"baseColorFactor":[
					0.0017582105938345194,
					0.0017582105938345194,
					0.0017582105938345194,
					1
				],
				"metallicFactor":0,
				"roughnessFactor":0.5
			}
		},
		{
			"doubleSided":true,
			"name":"Material.007",
			"pbrMetallicRoughness":{
				"baseColorFactor":[
					0.0017582105938345194,
					0.0017582105938345194,
					0.0017582105938345194,
					1
				],
				"metallicFactor":0,
				"roughnessFactor":0.5
			}
		},
		{
			"doubleSided":true,
			"name":"Material.008",
			"pbrMetallicRoughness":{
				"baseColorFactor":[
					0.0017582105938345194,
					0.0017582105938345194,
					0.0017582105938345194,
					1
				],
				"metallicFactor":0,
				"roughnessFactor":0.5
			}
		},
		{
			"doubleSided":true,
			"name":"Material.009",
			"pbrMetallicRoughness":{
				"baseColorFactor":[
					0.0017582105938345194,
					0.0017582105938345194,
					0.0017582105938345194,
					1
				],
				"metallicFactor":0,
				"roughnessFactor":0.5
			}
		},
		{
			"doubleSided":true,
			"name":"Material.010",
			"pbrMetallicRoughness":{
				"baseColorFactor":[
					0.0017582105938345194,
					0.0017582105938345194,
					0.0017582105938345194,
					1
				],
				"metallicFactor":0,
				"roughnessFactor":0.5
			}
		},
		{
			"doubleSided":true,
			"name":"Material.011",
			"pbrMetallicRoughness":{
				"baseColorFactor":[
					0.0017582105938345194,
					0.0017582105938345194,
					0.0017582105938345194,
					1
				],
				"metallicFactor":0,
				"roughnessFactor":0.5
			}
		}
	],
	"meshes":[
		{
			"name":"Cylinder",
			"primitives":[
				{
					"attributes":{
						"POSITION":0,
						"NORMAL":1,
						"TEXCOORD_0":2
					},
					"indices":3,
					"material":0
				},
				{
					"attributes":{
						"POSITION":4,
						"NORMAL":5,
						"TEXCOORD_0":6
					},
					"indices":7,
					"material":1
				}
			]
		},
		{
			"name":"Cylinder.002",
			"primitives":[
				{
					"attributes":{
						"POSITION":8,
						"NORMAL":9,
						"TEXCOORD_0":10
					},
					"indices":11
				}
			]
		},
		{
			"name":"Cylinder.001",
			"primitives":[
				{
					"attributes":{
						"POSITION":12,
						"NORMAL":13,
						"TEXCOORD_0":14
					},
					"indices":11
				}
			]
		},
		{
			"name":"SurfPatch",
			"primitives":[
				{
					"attributes":{
						"POSITION":15,
						"NORMAL":16,
						"TEXCOORD_0":17
					},
					"indices":18,
					"material":2
				}
			]
		},
		{
			"name":"Plane",
			"primitives":[
				{
					"attributes":{
						"POSITION":19,
						"NORMAL":20,
						"TEXCOORD_0":21
					},
					"indices":22,
					"material":3
				}
			]
		},
		{
			"name":"Plane.001",
			"primitives":[
				{
					"attributes":{
						"POSITION":23,
						"NORMAL":24,
						"TEXCOORD_0":25
					},
					"indices":22,
					"material":3
				}
			]
		},
		{
			"name":"SurfPatch.001",
			"primitives":[
				{
					"attributes":{
						"POSITION":26,
						"NORMAL":27,
						"TEXCOORD_0":28
					},
					"indices":18,
					"material":2
				}
			]
		},
		{
			"name":"SurfPatch.002",
			"primitives":[
				{
					"attributes":{
						"POSITION":29,
						"NORMAL":30,
						"TEXCOORD_0":31
					},
					"indices":32,
					"material":4
				}
			]
		},
		{
			"name":"Plane.002",
			"primitives":[
				{
					"attributes":{
						"POSITION":33,
						"NORMAL":34,
						"TEXCOORD_0":35
					},
					"indices":36,
					"material":4
				}
			]
		},
		{
			"name":"Plane.003",
			"primitives":[
				{
					"attributes":{
						"POSITION":37,
						"NORMAL":38,
						"TEXCOORD_0":39
					},
					"indices":36,
					"material":5
				}
			]
		},
		{
			"name":"Plane.004",
			"primitives":[
				{
					"attributes":{
						"POSITION":40,
						"NORMAL":41,
						"TEXCOORD_0":42
					},
					"indices":36,
					"material":6
				}
			]
		},
		{
			"name":"Plane.005",
			"primitives":[
				{
					"attributes":{
						"POSITION":43,
						"NORMAL":44,
						"TEXCOORD_0":45
					},
					"indices":36,
					"material":7
				}
			]
		},
		{
			"name":"Plane.006",
			"primitives":[
				{
					"attributes":{
						"POSITION":46,
						"NORMAL":47,
						"TEXCOORD_0":48
					},
					"indices":36,
					"material":8
				}
			]
		},
		{
			"name":"Plane.007",
			"primitives":[
				{
					"attributes":{
						"POSITION":49,
						"NORMAL":50,
						"TEXCOORD_0":51
					},
					"indices":36,
					"material":9
				}
			]
		},
		{
			"name":"Plane.008",
			"primitives":[
				{
					"attributes":{
						"POSITION":52,
						"NORMAL":53,
						"TEXCOORD_0":54
					},
					"indices":36,
					"material":10
				}
			]
		},
		{
			"name":"Plane.009",
			"primitives":[
				{
					"attributes":{
						"POSITION":55,
						"NORMAL":56,
						"TEXCOORD_0":57
					},
					"indices":36,
					"material":11
				}
			]
		}
	],
	"textures":[
		{
			"sampler":0,
			"source":0
		},
		{
			"sampler":0,
			"source":1
		}
	],
	"images":[
		{
			"mimeType":"image/png",
			"name":"qantas",
			"uri":"qantas.png"
		},
		{
			"mimeType":"image/png",
			"name":"kangaroo",
			"uri":"kangaroo.png"
		}
	],
	"accessors":[
		{
			"bufferView":0,
			"componentType":5126,
			"count":7611,
			"max":[
				10.985453605651855,
				2.169191360473633,
				0.8665613532066345
			],
			"min":[
				-10.614563941955566,
				-1.689825177192688,
				-2.879626989364624
			],
			"type":"VEC3"
		},
		{
			"bufferView":1,
			"componentType":5126,
			"count":7611,
			"type":"VEC3"
		},
		{
			"bufferView":2,
			"componentType":5126,
			"count":7611,
			"type":"VEC2"
		},
		{
			"bufferView":3,
			"componentType":5123,
			"count":9150,
			"type":"SCALAR"
		},
		{
			"bufferView":4,
			"componentType":5126,
			"count":2723,
			"max":[
				0.868422269821167,
				2.138155698776245,
				0.8665368556976318
			],
			"min":[
				-0.8639599680900574,
				0.6598838567733765,
				-2.980225086212158
			],
			"type":"VEC3"
		},
		{
			"bufferView":5,
			"componentType":5126,
			"count":2723,
			"type":"VEC3"
		},
		{
			"bufferView":6,
			"componentType":5126,
			"count":2723,
			"type":"VEC2"
		},
		{
			"bufferView":7,
			"componentType":5123,
			"count":3177,
			"type":"SCALAR"
		},
		{
			"bufferView":8,
			"componentType":5126,
			"count":320,
			"max":[
				1,
				0.9999996423721313,
				1
			],
			"min":[
				-1,
				-1,
				-1
			],
			"type":"VEC3"
		},
		{
			"bufferView":9,
			"componentType":5126,
			"count":320,
			"type":"VEC3"
		},
		{
			"bufferView":10,
			"componentType":5126,
			"count":320,
			"type":"VEC2"
		},
		{
			"bufferView":11,
			"componentType":5123,
			"count":564,
			"type":"SCALAR"
		},
		{
			"bufferView":12,
			"componentType":5126,
			"count":320,
			"max":[
				1,
				0.9999996423721313,
				1
			],
			"min":[
				-1,
				-1,
				-1
			],
			"type":"VEC3"
		},
		{
			"bufferView":13,
			"componentType":5126,
			"count":320,
			"type":"VEC3"
		},
		{
			"bufferView":14,
			"componentType":5126,
			"count":320,
			"type":"VEC2"
		},
		{
			"bufferView":15,
			"componentType":5126,
			"count":128,
			"max":[
				0.4939458966255188,
				0.9846900701522827,
				0.5000000596046448
			],
			"min":[
				-0.5069578289985657,
				0.9370717406272888,
				-0.49999910593032837
			],
			"type":"VEC3"
		},
		{
			"bufferView":16,
			"componentType":5126,
			"count":128,
			"type":"VEC3"
		},
		{
			"bufferView":17,
			"componentType":5126,
			"count":128,
			"type":"VEC2"
		},
		{
			"bufferView":18,
			"componentType":5123,
			"count":630,
			"type":"SCALAR"
		},
		{
			"bufferView":19,
			"componentType":5126,
			"count":4,
			"max":[
				1,
				0,
				1
			],
			"min":[
				-1,
				0,
				-1
			],
			"type":"VEC3"
		},
		{
			"bufferView":20,
			"componentType":5126,
			"count":4,
			"type":"VEC3"
		},
		{
			"bufferView":21,
			"componentType":5126,
			"count":4,
			"type":"VEC2"
		},
		{
			"bufferView":22,
			"componentType":5123,
			"count":6,
			"type":"SCALAR"
		},
		{
			"bufferView":23,
			"componentType":5126,
			"count":4,
			"max":[
				1,
				0,
				1
			],
			"min":[
				-1,
				0,
				-1
			],
			"type":"VEC3"
		},
		{
			"bufferView":24,
			"componentType":5126,
			"count":4,
			"type":"VEC3"
		},
		{
			"bufferView":25,
			"componentType":5126,
			"count":4,
			"type":"VEC2"
		},
		{
			"bufferView":26,
			"componentType":5126,
			"count":128,
			"max":[
				0.4939458966255188,
				0.9846900701522827,
				0.5000000596046448
			],
			"min":[
				-0.5069578289985657,
				0.9370717406272888,
				-0.49999910593032837
			],
			"type":"VEC3"
		},
		{
			"bufferView":27,
			"componentType":5126,
			"count":128,
			"type":"VEC3"
		},
		{
			"bufferView":28,
			"componentType":5126,
			"count":128,
			"type":"VEC2"
		},
		{
			"bufferView":29,
			"componentType":5126,
			"count":256,
			"max":[
				0.6657494902610779,
				0.7322844862937927,
				1.221369981765747
			],
			"min":[
				-0.6598554849624634,
				-0.06528834998607635,
				-0.30216100811958313
			],
			"type":"VEC3"
		},
		{
			"bufferView":30,
			"componentType":5126,
			"count":256,
			"type":"VEC3"
		},
		{
			"bufferView":31,
			"componentType":5126,
			"count":256,
			"type":"VEC2"
		},
		{
			"bufferView":32,
			"componentType":5123,
			"count":1080,
			"type":"SCALAR"
		},
		{
			"bufferView":33,
			"componentType":5126,
			"count":250,
			"max":[
				0.9166667461395264,
				0,
				0.9166667461395264
			],
			"min":[
				-0.9166667461395264,
				0,
				-25.666667938232422
			],
			"type":"VEC3"
		},
		{
			"bufferView":34,
			"componentType":5126,
			"count":250,
			"type":"VEC3"
		},
		{
			"bufferView":35,
			"componentType":5126,
			"count":250,
			"type":"VEC2"
		},
		{
			"bufferView":36,
			"componentType":5123,
			"count":960,
			"type":"SCALAR"
		},
		{
			"bufferView":37,
			"componentType":5126,
			"count":250,
			"max":[
				0.9166667461395264,
				0,
				0.9166667461395264
			],
			"min":[
				-0.9166667461395264,
				0,
				-25.666667938232422
			],
			"type":"VEC3"
		},
		{
			"bufferView":38,
			"componentType":5126,
			"count":250,
			"type":"VEC3"
		},
		{
			"bufferView":39,
			"componentType":5126,
			"count":250,
			"type":"VEC2"
		},
		{
			"bufferView":40,
			"componentType":5126,
			"count":250,
			"max":[
				0.9166667461395264,
				0,
				0.9166667461395264
			],
			"min":[
				-0.9166667461395264,
				0,
				-25.666667938232422
			],
			"type":"VEC3"
		},
		{
			"bufferView":41,
			"componentType":5126,
			"count":250,
			"type":"VEC3"
		},
		{
			"bufferView":42,
			"componentType":5126,
			"count":250,
			"type":"VEC2"
		},
		{
			"bufferView":43,
			"componentType":5126,
			"count":250,
			"max":[
				0.9166667461395264,
				0,
				0.9166667461395264
			],
			"min":[
				-0.9166667461395264,
				0,
				-25.666667938232422
			],
			"type":"VEC3"
		},
		{
			"bufferView":44,
			"componentType":5126,
			"count":250,
			"type":"VEC3"
		},
		{
			"bufferView":45,
			"componentType":5126,
			"count":250,
			"type":"VEC2"
		},
		{
			"bufferView":46,
			"componentType":5126,
			"count":250,
			"max":[
				0.9166667461395264,
				0,
				0.9166667461395264
			],
			"min":[
				-0.9166667461395264,
				0,
				-25.666667938232422
			],
			"type":"VEC3"
		},
		{
			"bufferView":47,
			"componentType":5126,
			"count":250,
			"type":"VEC3"
		},
		{
			"bufferView":48,
			"componentType":5126,
			"count":250,
			"type":"VEC2"
		},
		{
			"bufferView":49,
			"componentType":5126,
			"count":250,
			"max":[
				0.9166667461395264,
				0,
				0.9166667461395264
			],
			"min":[
				-0.9166667461395264,
				0,
				-25.666667938232422
			],
			"type":"VEC3"
		},
		{
			"bufferView":50,
			"componentType":5126,
			"count":250,
			"type":"VEC3"
		},
		{
			"bufferView":51,
			"componentType":5126,
			"count":250,
			"type":"VEC2"
		},
		{
			"bufferView":52,
			"componentType":5126,
			"count":250,
			"max":[
				0.9166667461395264,
				0,
				0.9166667461395264
			],
			"min":[
				-0.9166667461395264,
				0,
				-25.666667938232422
			],
			"type":"VEC3"
		},
		{
			"bufferView":53,
			"componentType":5126,
			"count":250,
			"type":"VEC3"
		},
		{
			"bufferView":54,
			"componentType":5126,
			"count":250,
			"type":"VEC2"
		},
		{
			"bufferView":55,
			"componentType":5126,
			"count":250,
			"max":[
				0.9166667461395264,
				0,
				0.9166667461395264
			],
			"min":[
				-0.9166667461395264,
				0,
				-25.666667938232422
			],
			"type":"VEC3"
		},
		{
			"bufferView":56,
			"componentType":5126,
			"count":250,
			"type":"VEC3"
		},
		{
			"bufferView":57,
			"componentType":5126,
			"count":250,
			"type":"VEC2"
		}
	],
	"bufferViews":[
		{
			"buffer":0,
			"byteLength":91332,
			"byteOffset":0,
			"target":34962
		},
		{
			"buffer":0,
			"byteLength":91332,
			"byteOffset":91332,
			"target":34962
		},
		{
			"buffer":0,
			"byteLength":60888,
			"byteOffset":182664,
			"target":34962
		},
		{
			"buffer":0,
			"byteLength":18300,
			"byteOffset":243552,
			"target":34963
		},
		{
			"buffer":0,
			"byteLength":32676,
			"byteOffset":261852,
			"target":34962
		},
		{
			"buffer":0,
			"byteLength":32676,
			"byteOffset":294528,
			"target":34962
		},
		{
			"buffer":0,
			"byteLength":21784,
			"byteOffset":327204,
			"target":34962
		},
		{
			"buffer":0,
			"byteLength":6354,
			"byteOffset":348988,
			"target":34963
		},
		{
			"buffer":0,
			"byteLength":3840,
			"byteOffset":355344,
			"target":34962
		},
		{
			"buffer":0,
			"byteLength":3840,
			"byteOffset":359184,
			"target":34962
		},
		{
			"buffer":0,
			"byteLength":2560,
			"byteOffset":363024,
			"target":34962
		},
		{
			"buffer":0,
			"byteLength":1128,
			"byteOffset":365584,
			"target":34963
		},
		{
			"buffer":0,
			"byteLength":3840,
			"byteOffset":366712,
			"target":34962
		},
		{
			"buffer":0,
			"byteLength":3840,
			"byteOffset":370552,
			"target":34962
		},
		{
			"buffer":0,
			"byteLength":2560,
			"byteOffset":374392,
			"target":34962
		},
		{
			"buffer":0,
			"byteLength":1536,
			"byteOffset":376952,
			"target":34962
		},
		{
			"buffer":0,
			"byteLength":1536,
			"byteOffset":378488,
			"target":34962
		},
		{
			"buffer":0,
			"byteLength":1024,
			"byteOffset":380024,
			"target":34962
		},
		{
			"buffer":0,
			"byteLength":1260,
			"byteOffset":381048,
			"target":34963
		},
		{
			"buffer":0,
			"byteLength":48,
			"byteOffset":382308,
			"target":34962
		},
		{
			"buffer":0,
			"byteLength":48,
			"byteOffset":382356,
			"target":34962
		},
		{
			"buffer":0,
			"byteLength":32,
			"byteOffset":382404,
			"target":34962
		},
		{
			"buffer":0,
			"byteLength":12,
			"byteOffset":382436,
			"target":34963
		},
		{
			"buffer":0,
			"byteLength":48,
			"byteOffset":382448,
			"target":34962
		},
		{
			"buffer":0,
			"byteLength":48,
			"byteOffset":382496,
			"target":34962
		},
		{
			"buffer":0,
			"byteLength":32,
			"byteOffset":382544,
			"target":34962
		},
		{
			"buffer":0,
			"byteLength":1536,
			"byteOffset":382576,
			"target":34962
		},
		{
			"buffer":0,
			"byteLength":1536,
			"byteOffset":384112,
			"target":34962
		},
		{
			"buffer":0,
			"byteLength":1024,
			"byteOffset":385648,
			"target":34962
		},
		{
			"buffer":0,
			"byteLength":3072,
			"byteOffset":386672,
			"target":34962
		},
		{
			"buffer":0,
			"byteLength":3072,
			"byteOffset":389744,
			"target":34962
		},
		{
			"buffer":0,
			"byteLength":2048,
			"byteOffset":392816,
			"target":34962
		},
		{
			"buffer":0,
			"byteLength":2160,
			"byteOffset":394864,
			"target":34963
		},
		{
			"buffer":0,
			"byteLength":3000,
			"byteOffset":397024,
			"target":34962
		},
		{
			"buffer":0,
			"byteLength":3000,
			"byteOffset":400024,
			"target":34962
		},
		{
			"buffer":0,
			"byteLength":2000,
			"byteOffset":403024,
			"target":34962
		},
		{
			"buffer":0,
			"byteLength":1920,
			"byteOffset":405024,
			"target":34963
		},
		{
			"buffer":0,
			"byteLength":3000,
			"byteOffset":406944,
			"target":34962
		},
		{
			"buffer":0,
			"byteLength":3000,
			"byteOffset":409944,
			"target":34962
		},
		{
			"buffer":0,
			"byteLength":2000,
			"byteOffset":412944,
			"target":34962
		},
		{
			"buffer":0,
			"byteLength":3000,
			"byteOffset":414944,
			"target":34962
		},
		{
			"buffer":0,
			"byteLength":3000,
			"byteOffset":417944,
			"target":34962
		},
		{
			"buffer":0,
			"byteLength":2000,
			"byteOffset":420944,
			"target":34962
		},
		{
			"buffer":0,
			"byteLength":3000,
			"byteOffset":422944,
			"target":34962
		},
		{
			"buffer":0,
			"byteLength":3000,
			"byteOffset":425944,
			"target":34962
		},
		{
			"buffer":0,
			"byteLength":2000,
			"byteOffset":428944,
			"target":34962
		},
		{
			"buffer":0,
			"byteLength":3000,
			"byteOffset":430944,
			"target":34962
		},
		{
			"buffer":0,
			"byteLength":3000,
			"byteOffset":433944,
			"target":34962
		},
		{
			"buffer":0,
			"byteLength":2000,
			"byteOffset":436944,
			"target":34962
		},
		{
			"buffer":0,
			"byteLength":3000,
			"byteOffset":438944,
			"target":34962
		},
		{
			"buffer":0,
			"byteLength":3000,
			"byteOffset":441944,
			"target":34962
		},
		{
			"buffer":0,
			"byteLength":2000,
			"byteOffset":444944,
			"target":34962
		},
		{
			"buffer":0,
			"byteLength":3000,
			"byteOffset":446944,
			"target":34962
		},
		{
			"buffer":0,
			"byteLength":3000,
			"byteOffset":449944,
			"target":34962
		},
		{
			"buffer":0,
			"byteLength":2000,
			"byteOffset":452944,
			"target":34962
		},
		{
			"buffer":0,
			"byteLength":3000,
			"byteOffset":454944,
			"target":34962
		},
		{
			"buffer":0,
			"byteLength":3000,
			"byteOffset":457944,
			"target":34962
		},
		{
			"buffer":0,
			"byteLength":2000,
			"byteOffset":460944,
			"target":34962
		}
	],
	"samplers":[
		{
			"magFilter":9729,
			"minFilter":9987
		}
	],
	"buffers":[
		{
			"byteLength":462944,
			"uri":"plane.bin"
		}
	]
}
