<?xml version="1.0" encoding="UTF-8"?>
<svg width="80" height="15" version="1.1" viewBox="0 0 80 15" xmlns="http://www.w3.org/2000/svg">
  <defs>
    <mask id="ms1" maskUnits="userSpaceOnUse">
      <path d="m23.56 0-2.1328 5.3887-5.4824 0.18164 4.4668 3.6934-1.5215 5.2715 4.8926-3.1074 4.543 3.0762-1.4434-5.6133 4.3281-3.3711-5.7832-0.36133zm31.889 0.05274-2.1309 5.3887-5.4824 0.18164 4.4668 3.6934-1.5215 5.2715 4.8926-3.1074 4.543 3.0762-1.4434-5.6133 4.3281-3.3711-5.7832-0.36133zm-47.834 0.10156-2.1309 5.3887-5.4844 0.18164 4.4668 3.6934-1.5215 5.2695 4.8926-3.1055 4.543 3.0742-1.4434-5.6113 4.3301-3.3711-5.7852-0.36133zm63.779 0-2.1309 5.3887-5.4844 0.18164 4.4688 3.6934-1.5215 5.2695 4.8906-3.1055 4.543 3.0742-1.4434-5.6113 4.3301-3.3711-5.7852-0.36133zm-31.889 0.02929-2.1328 5.3906-5.4824 0.18164 4.4668 3.6914-1.5215 5.2715 4.8926-3.1074 4.543 3.0762-1.4434-5.6133 4.3281-3.3691-5.7832-0.36133z" fill="#fff"/>
    </mask>
  </defs>
  <rect x="0" y="0" width="80" height="15" fill="#dcdcdc" mask="url(#ms1)"/>
  <rect x="0" y="0" width="80" height="15" fill="#edd702" mask="url(#ms1)"/>
</svg>
